<?xml version="1.0" standalone="no"?>
<!DOCTYPE svg PUBLIC "-//W3C//DTD SVG 1.1//EN" "http://www.w3.org/Graphics/SVG/1.1/DTD/svg11.dtd">
<svg xmlns="http://www.w3.org/2000/svg" width="512" height="512" viewBox="0 0 512 512" fill="none">
<path d="M56 433.232H72.37V346H56V433.232Z" fill="#231F20"/>
<path fill-rule="evenodd" clip-rule="evenodd" d="M109.051 434.546C91.3647 434.546 79.535 420.087 79.535 403.359C79.535 386.628 91.3647 372.17 109.051 372.17C115.503 372.17 120.881 374.44 124.346 377.785V373.483H140.716V433.232H124.346V428.812C120.881 432.276 115.503 434.546 109.051 434.546ZM111.44 419.61C117.773 419.61 121.597 416.862 124.346 413.037V393.559C121.597 389.855 117.773 387.106 111.44 387.106C102.598 387.106 96.5041 394.515 96.5041 403.359C96.5041 412.201 102.598 419.61 111.44 419.61Z" fill="#231F20"/>
<path fill-rule="evenodd" clip-rule="evenodd" d="M167.027 428.812C170.492 432.276 175.989 434.546 182.322 434.546C200.007 434.546 211.838 420.087 211.838 403.359C211.838 386.628 200.007 372.17 182.322 372.17C175.989 372.17 170.492 374.44 167.027 377.785V346H150.655V433.232H167.027V428.812ZM194.988 403.359C194.988 412.2 188.895 419.61 179.931 419.61C173.598 419.61 169.774 416.862 167.027 413.037V393.559C169.774 389.855 173.598 387.106 179.931 387.106C188.895 387.106 194.988 394.515 194.988 403.359Z" fill="#231F20"/>
<path d="M248.863 434.546C231.178 434.546 217.195 421.401 217.195 403.359C217.195 385.313 231.178 372.17 248.863 372.17C261.291 372.17 272.047 379.1 277.185 389.377L262.965 397.026C260.574 391.528 255.435 387.465 248.863 387.465C240.26 387.465 233.687 394.156 233.687 403.359C233.687 412.559 240.26 419.253 248.863 419.253C255.435 419.253 260.574 415.19 262.965 409.69L277.185 417.338C272.047 427.617 261.291 434.546 248.863 434.546Z" fill="#231F20"/>
<path fill-rule="evenodd" clip-rule="evenodd" d="M280.519 403.359C280.519 420.805 294.62 434.546 311.947 434.546C329.274 434.546 343.374 420.805 343.374 403.359C343.374 385.911 329.274 372.17 311.947 372.17C294.62 372.17 280.519 385.911 280.519 403.359ZM326.764 403.359C326.764 412.559 320.55 419.253 311.947 419.253C303.342 419.253 297.011 412.559 297.011 403.359C297.011 394.156 303.342 387.465 311.947 387.465C320.55 387.465 326.764 394.156 326.764 403.359Z" fill="#231F20"/>
<path fill-rule="evenodd" clip-rule="evenodd" d="M394.817 373.483H411.189V377.785C414.654 374.44 420.151 372.17 426.485 372.17C444.169 372.17 456 386.628 456 403.359C456 420.087 444.169 434.546 426.485 434.546C420.151 434.546 414.654 432.276 411.189 428.812V456.416H394.817V373.483ZM424.095 419.61C433.057 419.61 439.151 412.201 439.151 403.359C439.151 394.515 433.057 387.106 424.095 387.106C417.76 387.106 413.938 389.855 411.189 393.559V413.037C413.938 416.862 417.76 419.61 424.095 419.61Z" fill="#231F20"/>
<path d="M366.862 380.654C368.894 376.351 374.511 372.767 380.722 372.767C383.711 372.767 386.34 373.365 387.656 373.842V389.531C387.656 389.531 374.635 384.978 366.862 396.255V433.232H350.491V373.483H366.862V380.654Z" fill="#231F20"/>
<path fill-rule="evenodd" clip-rule="evenodd" d="M335.762 85.4186C387.375 127.049 394.368 203.367 351.678 257.884C309.156 313.562 231.514 322.66 177.938 276.03C124.178 228.153 116.423 146.657 160.927 96.1158C205.589 46.661 283.996 42.7405 335.762 85.4186Z" fill="#4CD5F7"/>
<path fill-rule="evenodd" clip-rule="evenodd" d="M333.916 97.563C371.927 128.222 377.078 184.427 345.637 224.576C314.32 265.578 257.142 273.405 217.686 239.062C178.093 203.806 172.383 142.661 205.157 105.44C238.05 69.021 295.792 66.1312 333.916 97.563Z" fill="#2998E3"/>
<path fill-rule="evenodd" clip-rule="evenodd" d="M330.619 109.118C359.438 132.417 363.341 175.129 339.502 205.641C315.76 236.8 272.405 241.894 242.491 215.794C212.472 189 208.14 143.391 232.99 115.104C257.929 87.427 301.711 85.2331 330.619 109.118Z" fill="#3A5CE9"/>
</svg>